<?xml version="1.0" encoding="UTF-8"?>
<svg xmlns="http://www.w3.org/2000/svg" xmlns:xlink="http://www.w3.org/1999/xlink" viewBox="0 0 100 100" width="100px" height="100px">
<g id="surface92447343">
<path style=" stroke:none;fill-rule:nonzero;fill:rgb(100%,100%,100%);fill-opacity:1;" d="M 50 6 C 44.554688 6 39.042969 8.855469 36.199219 14.429688 C 30.1875 26.105469 23.808594 38.640625 18.765625 48.773438 C 16.246094 53.839844 14.058594 58.308594 12.417969 61.769531 C 10.777344 65.230469 9.722656 67.53125 9.292969 68.902344 L 9.289062 68.90625 L 9.289062 68.910156 C 8.714844 70.773438 8.101562 72.960938 8.101562 75.421875 C 8.101562 85.664062 16.460938 94 26.71875 94 C 38.066406 94 46.074219 84.921875 49.824219 80.621094 L 50 80.847656 L 50.175781 80.621094 C 53.925781 84.921875 61.933594 94 73.28125 94 C 83.539062 94 91.898438 85.664062 91.898438 75.421875 C 91.898438 72.960938 91.285156 70.773438 90.710938 68.910156 L 90.710938 68.90625 L 90.707031 68.902344 C 90.277344 67.53125 89.222656 65.230469 87.582031 61.769531 C 85.941406 58.308594 83.753906 53.839844 81.234375 48.773438 C 76.191406 38.640625 69.8125 26.105469 63.800781 14.429688 L 63.796875 14.425781 C 60.953125 8.851562 55.441406 6 50 6 Z M 50 10 C 54.078125 10 58.082031 12.027344 60.238281 16.25 L 60.238281 16.253906 L 60.242188 16.253906 C 66.25 27.917969 72.628906 40.449219 77.65625 50.554688 C 80.171875 55.609375 82.347656 60.058594 83.96875 63.480469 C 85.585938 66.898438 86.683594 69.449219 86.886719 70.089844 C 87.433594 71.867188 87.898438 73.640625 87.898438 75.421875 C 87.898438 83.5 81.382812 90 73.28125 90 C 64.128906 90 56.382812 81.707031 52.617188 77.496094 L 54.734375 74.789062 C 58.136719 70.433594 64 62.179688 64 53.917969 C 64 46.253906 57.695312 40 50 40 C 42.304688 40 36 46.253906 36 53.917969 C 36 62.199219 41.863281 70.445312 45.265625 74.792969 L 47.382812 77.5 C 43.617188 81.710938 35.871094 90 26.71875 90 C 18.617188 90 12.101562 83.5 12.101562 75.421875 C 12.101562 73.640625 12.566406 71.867188 13.113281 70.089844 C 13.316406 69.449219 14.414062 66.898438 16.03125 63.480469 C 17.652344 60.058594 19.828125 55.609375 22.34375 50.554688 C 27.371094 40.449219 33.75 27.917969 39.757812 16.253906 L 39.761719 16.253906 L 39.761719 16.25 C 41.917969 12.027344 45.921875 10 50 10 Z M 50 44 C 55.539062 44 60 48.4375 60 53.917969 C 60 60.140625 54.78125 68.234375 51.582031 72.328125 L 50 74.355469 L 48.414062 72.328125 C 45.214844 68.242188 40 60.164062 40 53.917969 C 40 48.4375 44.460938 44 50 44 Z M 50 44 "/>
</g>
</svg>
